<?xml version="1.0" encoding="UTF-8"?>
<svg width="700pt" height="700pt" version="1.1" viewBox="0 0 700 700" xmlns="http://www.w3.org/2000/svg">
 <g>
  <path d="m590.24 126.72c-1.7734-1.9375-4.293-3.0547-6.9062-3.0547h-16.078c-0.046875-17.289-11.27-22.797-18.992-26.273l-2.7734-1.2617c-0.1875-0.09375-17.688-9.125-19.625-9.707-3.2188-1.0742-6.5781-2.8477-10.035-4.5977-4.2227-2.1484-9.1914-4.6445-14.488-6.3008 0.76953-5.1797 1.8906-10.266 3.7344-14.98 1.7969-4.0352 2.4492-8.3984 1.9375-13.043v-0.14062c0-1.4219-0.35156-2.7773-0.91016-3.9648-2.4258-6.5586-9.2148-10.523-15.844-9.4727-8.6562 1.0039-13.977-3.2891-22.191-11.035-2.125-2.0078-4.2695-3.9883-5.7148-5.1562-12.438-12.855-32.152-14.934-46.223-5.3906-30.73 16.941-61.391 33.391-92.238 49.676-2.8242-2.7773-5.2031-5.9727-6.3945-9.8008-2.3555-7.375-6.7188-10.523-9.9414-11.828-7.8398-3.1953-15.398 0.79297-20.906 3.7344-1.1445 0.60547-2.2383 1.1914-3.2188 1.6328-0.98047 0.44141-2.1914 0.79297-3.4062 1.2109-5.9258 2.0781-14.047 4.9453-17.078 12.832-1.2617 3.2656-1.9844 8.5391 1.7969 15.492 1.9609 3.4062 2.9883 7.2812 2.9648 10.57-0.75 9.0352-2.7344 17.922-5.6953 25.996-1.6367 3.8047-2.6602 7.7695-3.3398 11.809h-24.336c-2.6367 0-5.1328 1.0977-6.9062 3.0586-1.7734 1.957-2.6367 4.5469-2.3789 7.1602l12.133 102.48c0.48828 3.6641 0.86328 7.3984 1.2383 11.129 0.28125 2.8477 0.60547 5.6484 0.93359 8.4688l-38.266 83.441-24.898-11.434c-4.9688-2.2852-10.523-2.4961-15.703-0.58203-5.1328 1.9141-9.2383 5.7148-11.527 10.688l-36.074 78.68c-4.6914 10.242-0.16406 22.469 10.102 27.207l24.922 11.41-38.941 84.91c-2.1484 4.6914-0.09375 10.219 4.5977 12.367 1.2617 0.58203 2.5664 0.86328 3.8984 0.86328 3.5234 0 6.9062-2.0312 8.4922-5.4375l117.64-256.62c1.5625 12.297 3.125 24.617 4.5977 37.637 1.6797 14.957 3.3828 29.844 5.2969 44.262 1.4688 14.047 3.1719 28.117 4.9219 42.023 1.0508 9.6836 2.2852 19.508 3.5469 29.422l2.0312 17.43c0.72266 6.418 1.4453 12.832 2.0312 18.645 0.48828 11.082 2.7773 21.91 6.9766 32.527 4.7148 10.734 12.273 19.926 22.051 26.715 10.852 7.2344 23.426 11.082 36.469 11.176h155.4c28.629 0 53.41-18.434 61.578-45.43 2.2852-6.418 3.7812-22.145 5.5078-42.023 0.53516-6.2539 1.0039-11.551 1.4453-14.863 1.2148-10.922 2.4258-21.863 3.8984-32.828 0.83984-8.0742 1.7969-16.055 2.7305-24.035l7.8633-66.289c1.7969-14.422 3.6172-28.793 5.1797-42.77l10.711-91.422c1.0508-9.0547 2.1016-18.223 3.3594-27.535l2.3789-21.281c0.51172-2.918 0.81641-5.8555 1.0742-8.7969l0.023437-0.09375c0.17969-2.6758-0.68359-5.2656-2.4336-7.2031zm-434.58 311.71-24.875-11.41c-0.98047-0.44141-1.375-1.5391-0.93359-2.4727l36.074-78.68c0.42188-0.95703 1.5391-1.375 2.4727-0.91016l24.898 11.434zm351.68-339.99c4.3398 2.2148 8.5859 4.3398 11.945 5.4141 1.6094 0.72266 12.344 6.0898 17.805 8.9141l3.5234 1.6328c6.4648 2.918 8.168 3.9414 8.168 9.2383h-76.695c2.2383-5.3438 3.6172-10.988 3.8984-17.012 0.070312-1.9609-0.046875-3.9414-0.28125-5.7852-0.1875-1.6562 0.14062-3.5938 0.62891-3.0781 3.4297 1.0273 7.2109 0 9.6133-2.7305 3.7773-4.1289 7.7227-3.5703 21.395 3.4062zm-24.57-23.168c-2.2617 0.81641-4.5273 1.8906-6.6953 3.6172-5.8086-0.53516-9.6836 1.7031-12.156 3.8047-7.8398 6.5586-6.9766 18.059-6.6953 20.395 0.11719 0.98047 0.1875 2.0078 0.16406 2.8477-0.21094 3.8984-1.0977 7.6758-2.8945 11.762l-2.2422 5.9688h-69.578l-0.44141-1.0039c-0.023437-0.046874 0-0.09375-0.023437-0.14062-0.023437-0.046876-0.070313-0.070313-0.09375-0.11719-0.30469-0.62891-0.58203-1.3516-0.88672-2.0312l102.88-54.973c-0.76953 3.2461-0.93359 6.5586-1.332 9.8711zm-56.91-47.062c7.2344-4.875 16.941-3.875 23.824 3.1484 1.9141 1.6094 3.7578 3.3594 5.6016 5.0859 5.0156 4.7383 10.758 10.148 18.34 13.371l-99.703 53.246c-2.2617-5.9258-5.5547-11.34-9.6602-15.82-0.09375-0.11719-0.25781-0.21094-0.35156-0.32813-0.32812-0.35156-0.65234-0.62891-1.0273-0.93359-4.9922-5.4141-11.105-9.7539-18.176-12.438-0.51172-0.1875-0.95703-0.51172-1.4453-0.69922 27.344-14.488 54.668-29.188 82.598-44.633zm-64.492 93.355-4.7852 2.1016h-44.988l42-18.621c0.98047 1.6562 2.332 3.0781 3.0117 4.9219l3.9648 9.6367c0.21484 0.63281 0.51562 1.3086 0.79688 1.9609zm-75.133-56.98c1.6562-0.58203 3.2656-1.168 4.6445-1.75 1.3984-0.60547 2.918-1.3984 4.4805-2.2383 1.1641-0.63281 3.0547-1.6328 4.5-2.2188 0.76953 2.3086 1.7266 4.5508 2.8711 6.6719l-18.527 8.1914c-0.76953-2.2617-1.7266-4.5039-2.8906-6.7422 1.4688-0.69922 3.5898-1.4453 4.9219-1.9141zm-0.53906 28.398 29.891-13.207c0.67578 0.48828 1.375 0.98047 2.1016 1.4219 6.5781 4.082 13.578 7.4414 20.602 9.918 0.11719 0.046874 0.21094 0.11719 0.30469 0.16406l-58.801 26.086c2.7539-7.793 4.7852-15.867 5.9023-24.383zm284.93 68.879c-1.2383 9.125-2.3086 18.41-3.3594 27.578l-10.711 91.465c-1.5391 13.906-3.3594 28.211-5.1562 42.535l-7.8867 66.453c-0.93359 8.0508-1.8906 16.102-2.707 23.988-1.4688 10.828-2.707 21.91-3.9414 33.086-0.39844 2.9414-0.88672 8.5625-1.4453 15.191-1.0039 11.434-2.8711 32.715-4.6445 37.824-5.9023 19.484-23.52 32.574-43.844 32.574h-155.36c-9.332-0.046875-18.387-2.8242-26.039-7.9102-6.7891-4.7148-12.133-11.199-15.309-18.48-3.3125-8.3281-5.1797-17.125-5.6016-26.625-0.60547-6.3906-1.3516-12.875-2.0977-19.434l-2.0547-17.664c-1.2383-9.8008-2.4492-19.508-3.5234-29.215-1.7266-13.953-3.4297-27.883-4.9219-42.094-1.9375-14.559-3.5938-29.352-5.4141-45.453-1.7266-15.352-3.7344-31.336-5.6914-46.645-0.76953-7.4883-1.75-15.238-2.7539-22.727-0.46484-3.5-0.81641-7.0938-1.168-10.664-0.39844-3.9414-0.79297-7.9102-1.3086-11.738l-11.012-91.578h131.81c0.046875 0 0.09375 0.046875 0.16406 0.046875 0.070313 0 0.14062-0.046875 0.21094-0.046875h195.98z"/>
  <path d="m345.75 368.29 20.812-33.18c0.375-0.60547 1.168-0.79297 1.7734-0.42188l10.102 6.3477c0.30469 0.1875 0.65234 0.23438 1.0039 0.16406 0.72266-0.16406 1.1914-0.88672 1.0273-1.6094l-9.7773-42.652c0-0.046875-0.023437-0.09375-0.023437-0.14062-0.32812-1.2617-1.5859-2.0078-2.8477-1.6797l-42.652 9.7773c-0.375 0.070312-0.69922 0.30469-0.88672 0.62891-0.375 0.62891-0.16406 1.4453 0.46484 1.8203l10.102 6.3477c0.58203 0.375 0.76953 1.168 0.39844 1.75l-18.176 29.004c-5.8086 9.2383-5.3438 21.094 1.168 29.844l15.074 20.301c1.6094 2.1719 3.5703 4.082 5.7617 5.6719-3.3359-11.113-0.81641-23.129 6.6758-31.973z"/>
  <path d="m386.7 368.2h-40.855c-7.4883 8.8438-10.012 20.859-6.6719 31.965 4.5039 3.2422 9.9414 4.9922 15.492 4.9922h31.941c1.7969 0 3.2656-1.4688 3.2656-3.2656v-30.332c0.046875-1.7969-1.375-3.3125-3.1719-3.3594z"/>
  <path d="m356.98 274.19c-0.88672 1.5625-0.32812 3.5703 1.2383 4.457l26.461 15.004c0.023438 0 0.023438 0.023437 0.046875 0.023437 1.5859 0.83984 3.5703 0.21094 4.4102-1.375l20.113-35.465 18.645 34.441c0.32812 0.62891 0.09375 1.3984-0.51172 1.75l-10.5 5.6484c-0.51172 0.16406-0.88672 0.62891-0.93359 1.168-0.070312 0.74609 0.48828 1.3984 1.2383 1.4688l42 12.555c0.046875 0.023437 0.09375 0.023437 0.14062 0.046874 1.2383 0.32813 2.5195-0.42187 2.8477-1.6797l12.531-42c0.09375-0.32812 0.070313-0.67578-0.09375-1.0039-0.35156-0.67578-1.1445-0.93359-1.8203-0.58203l-10.5 5.6719c-0.62891 0.32813-1.3984 0.09375-1.7266-0.51172l-16.332-30.125c-5.1797-9.5898-15.727-15.027-26.555-13.695l-25.199 3.0352c-2.6602 0.32812-5.2266 1.0742-7.6523 2.1914-0.023438 0-0.023438-0.023438-0.046875-0.023438-5.0391 2.332-9.2383 6.1836-11.992 11.012z"/>
  <path d="m453.74 327.13c-1.5391 0.93359-2.0547 2.918-1.1445 4.4805l21 35-39.059-0.81641c-0.69922-0.023437-1.2617-0.60547-1.2617-1.3086l0.25781-11.922c0.14062-0.53516-0.070312-1.1211-0.53516-1.4453-0.60547-0.42188-1.4453-0.28125-1.8906 0.35156l-31.57 30.332c-0.046875 0.046874-0.070312 0.070312-0.11719 0.11719-0.88672 0.93359-0.83984 2.4258 0.11719 3.2891l30.332 31.594c0.25781 0.25781 0.60547 0.42187 0.95703 0.42187 0.74609 0.023438 1.3516-0.58203 1.375-1.3281l0.25781-11.922c0.023438-0.69922 0.60547-1.2617 1.3086-1.2617l34.207 0.72266c10.922 0.23438 20.836-6.2539 25.012-16.332l9.6602-23.332c1.0508-2.4961 1.7031-5.1328 1.9141-7.8398-5.8789 6.4414-13.906 10.312-22.398 11.012 8.4453-0.72266 16.426-4.5977 22.285-11.012 0.46484-5.5547-0.81641-11.082-3.6641-15.867l-16.332-27.488s0-0.023437-0.023438-0.023437c-0.93359-1.5391-2.9414-2.0312-4.4805-1.0977l-26.086 15.609c-0.050781 0.019532-0.097656 0.042969-0.12109 0.066406z"/>
 </g>
</svg>
