<?xml version="1.0" encoding="UTF-8"?>
<svg width="700pt" height="700pt" version="1.1" viewBox="0 0 700 700" xmlns="http://www.w3.org/2000/svg" xmlns:xlink="http://www.w3.org/1999/xlink">
 <defs>
  <symbol id="p" overflow="visible">
   <path d="m30.5-1.8281c-1.5742 0.82422-3.2148 1.4375-4.9219 1.8438-1.6992 0.41406-3.4766 0.625-5.3281 0.625-5.5312 0-9.9141-1.5391-13.141-4.625-3.2305-3.0938-4.8438-7.2852-4.8438-12.578 0-5.3008 1.6133-9.5 4.8438-12.594 3.2266-3.0938 7.6094-4.6406 13.141-4.6406 1.8516 0 3.6289 0.21094 5.3281 0.625 1.707 0.41797 3.3477 1.0312 4.9219 1.8438v6.875c-1.5859-1.082-3.1484-1.875-4.6875-2.375-1.543-0.50781-3.168-0.76562-4.875-0.76562-3.0547 0-5.4531 0.98047-7.2031 2.9375-1.75 1.9609-2.625 4.6562-2.625 8.0938 0 3.4297 0.875 6.1211 2.625 8.0781 1.75 1.9492 4.1484 2.9219 7.2031 2.9219 1.707 0 3.332-0.25 4.875-0.75 1.5391-0.5 3.1016-1.2891 4.6875-2.375z"/>
  </symbol>
  <symbol id="i" overflow="visible">
   <path d="m22.328-18.125c-0.69922-0.32031-1.3984-0.5625-2.0938-0.71875-0.6875-0.15625-1.3828-0.23438-2.0781-0.23438-2.043 0-3.6172 0.65625-4.7188 1.9688-1.1055 1.3125-1.6562 3.1953-1.6562 5.6406v11.469h-7.9531v-24.906h7.9531v4.0938c1.0195-1.625 2.1914-2.8125 3.5156-3.5625 1.332-0.75 2.9258-1.125 4.7812-1.125 0.25781 0 0.54688 0.011719 0.85938 0.03125 0.3125 0.023438 0.76562 0.070312 1.3594 0.14062z"/>
  </symbol>
  <symbol id="a" overflow="visible">
   <path d="m28.672-12.516v2.2656h-18.594c0.1875 1.8672 0.85938 3.2656 2.0156 4.2031s2.7695 1.4062 4.8438 1.4062c1.6758 0 3.3906-0.25 5.1406-0.75 1.7578-0.5 3.5664-1.25 5.4219-2.25v6.125c-1.8867 0.71875-3.7734 1.2578-5.6562 1.6094-1.875 0.36328-3.7578 0.54688-5.6406 0.54688-4.5 0-8-1.1406-10.5-3.4219-2.5-2.2891-3.75-5.5039-3.75-9.6406 0-4.0625 1.2227-7.2539 3.6719-9.5781 2.457-2.332 5.8359-3.5 10.141-3.5 3.9062 0 7.0312 1.1797 9.375 3.5312 2.3516 2.3555 3.5312 5.5078 3.5312 9.4531zm-8.1719-2.6406c0-1.5195-0.44531-2.7383-1.3281-3.6562-0.875-0.92578-2.0273-1.3906-3.4531-1.3906-1.543 0-2.7969 0.43359-3.7656 1.2969-0.96094 0.86719-1.5586 2.1172-1.7969 3.75z"/>
  </symbol>
  <symbol id="b" overflow="visible">
   <path d="m14.984-11.203c-1.6562 0-2.9062 0.28125-3.75 0.84375-0.83594 0.5625-1.25 1.3906-1.25 2.4844 0 1.0117 0.33203 1.8047 1 2.375 0.67578 0.57422 1.6172 0.85938 2.8281 0.85938 1.4883 0 2.7422-0.53516 3.7656-1.6094 1.0312-1.082 1.5469-2.4297 1.5469-4.0469v-0.90625zm12.156-3v14.203h-8.0156v-3.6875c-1.0742 1.5117-2.2773 2.6094-3.6094 3.2969-1.3359 0.6875-2.9531 1.0312-4.8594 1.0312-2.5859 0-4.6836-0.75-6.2969-2.25-1.6055-1.5078-2.4062-3.4609-2.4062-5.8594 0-2.9141 1.0039-5.0547 3.0156-6.4219 2.0078-1.3633 5.1602-2.0469 9.4531-2.0469h4.7031v-0.625c0-1.2578-0.5-2.1797-1.5-2.7656-0.99219-0.58203-2.5391-0.875-4.6406-0.875-1.7109 0-3.2969 0.17188-4.7656 0.51562-1.4609 0.33594-2.8203 0.84375-4.0781 1.5312v-6.0781c1.6953-0.41406 3.4062-0.72656 5.125-0.9375 1.7188-0.21875 3.4375-0.32812 5.1562-0.32812 4.5 0 7.7422 0.88672 9.7344 2.6562 1.9883 1.7734 2.9844 4.6523 2.9844 8.6406z"/>
  </symbol>
  <symbol id="h" overflow="visible">
   <path d="m12.516-31.969v7.0625h8.2031v5.7031h-8.2031v10.562c0 1.1484 0.22656 1.9297 0.6875 2.3438 0.45703 0.40625 1.3672 0.60938 2.7344 0.60938h4.0938v5.6875h-6.8281c-3.1367 0-5.3594-0.65625-6.6719-1.9688s-1.9688-3.5352-1.9688-6.6719v-10.562h-3.9688v-5.7031h3.9688v-7.0625z"/>
  </symbol>
  <symbol id="g" overflow="visible">
   <path d="m20.766-21.25v-13.344h8v34.594h-8v-3.6094c-1.0938 1.4688-2.3047 2.5469-3.625 3.2344-1.3242 0.67578-2.8516 1.0156-4.5781 1.0156-3.0742 0-5.5938-1.2188-7.5625-3.6562s-2.9531-5.5703-2.9531-9.4062c0-3.8438 0.98438-6.9844 2.9531-9.4219s4.4883-3.6562 7.5625-3.6562c1.7188 0 3.2383 0.34375 4.5625 1.0312 1.332 0.6875 2.5469 1.7617 3.6406 3.2188zm-5.25 16.109c1.707 0 3.0078-0.61719 3.9062-1.8594 0.89453-1.25 1.3438-3.0547 1.3438-5.4219 0-2.375-0.44922-4.1797-1.3438-5.4219-0.89844-1.25-2.1992-1.875-3.9062-1.875-1.6875 0-2.9805 0.625-3.875 1.875-0.89844 1.2422-1.3438 3.0469-1.3438 5.4219 0 2.3672 0.44531 4.1719 1.3438 5.4219 0.89453 1.2422 2.1875 1.8594 3.875 1.8594z"/>
  </symbol>
  <symbol id="f" overflow="visible">
   <path d="m17.078-5.1406c1.6953 0 2.9922-0.61719 3.8906-1.8594 0.90625-1.25 1.3594-3.0547 1.3594-5.4219 0-2.375-0.45312-4.1797-1.3594-5.4219-0.89844-1.25-2.1953-1.875-3.8906-1.875-1.7109 0-3.0234 0.625-3.9375 1.875-0.90625 1.25-1.3594 3.0586-1.3594 5.4219 0 2.3555 0.45312 4.1562 1.3594 5.4062 0.91406 1.25 2.2266 1.875 3.9375 1.875zm-5.2969-16.109c1.0938-1.457 2.3047-2.5312 3.6406-3.2188 1.3438-0.6875 2.8789-1.0312 4.6094-1.0312 3.0703 0 5.5938 1.2188 7.5625 3.6562s2.9531 5.5781 2.9531 9.4219c0 3.8359-0.98438 6.9688-2.9531 9.4062s-4.4922 3.6562-7.5625 3.6562c-1.7305 0-3.2656-0.34375-4.6094-1.0312-1.3359-0.6875-2.5469-1.7578-3.6406-3.2188v3.6094h-7.9531v-34.594h7.9531z"/>
  </symbol>
  <symbol id="e" overflow="visible">
   <path d="m0.5625-24.906h7.9531l6.6875 16.906 5.6875-16.906h7.9688l-10.469 27.266c-1.0547 2.7695-2.2812 4.707-3.6875 5.8125-1.3984 1.1016-3.2461 1.6562-5.5469 1.6562h-4.5938v-5.2188h2.4844c1.3516 0 2.3359-0.21875 2.9531-0.65625 0.61328-0.42969 1.0859-1.1992 1.4219-2.3125l0.23438-0.6875z"/>
  </symbol>
  <symbol id="d" overflow="visible">
   <path d="m4.1719-33.188h23.109v6.4688h-14.547v6.1719h13.672v6.4688h-13.672v7.6094h15.031v6.4688h-23.594z"/>
  </symbol>
  <symbol id="o" overflow="visible">
   <path d="m3.8281-34.594h7.9531v34.594h-7.9531z"/>
  </symbol>
  <symbol id="n" overflow="visible">
   <path d="m3.8281-24.906h7.9531v24.906h-7.9531zm0-9.6875h7.9531v6.5h-7.9531z"/>
  </symbol>
  <symbol id="c" overflow="visible">
   <path d="m23.281-24.125v6.0469c-1.7109-0.70703-3.3555-1.2383-4.9375-1.5938-1.5859-0.35156-3.0859-0.53125-4.5-0.53125-1.5117 0-2.6367 0.1875-3.375 0.5625-0.73047 0.375-1.0938 0.96094-1.0938 1.75 0 0.63672 0.27344 1.125 0.82812 1.4688 0.5625 0.33594 1.5625 0.58594 3 0.75l1.4062 0.20312c4.0703 0.51172 6.8125 1.3594 8.2188 2.5469s2.1094 3.0469 2.1094 5.5781c0 2.6562-0.98047 4.6523-2.9375 5.9844-1.9492 1.3359-4.8672 2-8.75 2-1.6484 0-3.3516-0.13281-5.1094-0.39062-1.75-0.25781-3.5547-0.64453-5.4062-1.1562v-6.0469c1.582 0.77344 3.207 1.3516 4.875 1.7344 1.6641 0.38672 3.3594 0.57812 5.0781 0.57812 1.5625 0 2.7344-0.21094 3.5156-0.64062 0.78906-0.4375 1.1875-1.0781 1.1875-1.9219 0-0.70703-0.27344-1.2344-0.8125-1.5781-0.54297-0.35156-1.6211-0.62891-3.2344-0.82812l-1.4062-0.17188c-3.543-0.44531-6.0273-1.2695-7.4531-2.4688-1.418-1.1953-2.125-3.0195-2.125-5.4688 0-2.6328 0.89844-4.5859 2.7031-5.8594 1.8125-1.2812 4.5859-1.9219 8.3281-1.9219 1.457 0 2.9922 0.11719 4.6094 0.34375 1.625 0.21875 3.3828 0.5625 5.2812 1.0312z"/>
  </symbol>
  <symbol id="m" overflow="visible">
   <path d="m0.21875-33.188h8.6094l8.7969 24.5 8.7812-24.5h8.6094l-12.297 33.188h-10.203z"/>
  </symbol>
  <symbol id="l" overflow="visible">
   <path d="m28.859-15.156v15.156h-8v-11.609c0-2.1445-0.054687-3.625-0.15625-4.4375-0.09375-0.82031-0.26172-1.4258-0.5-1.8125-0.3125-0.50781-0.73438-0.91016-1.2656-1.2031-0.53125-0.28906-1.1367-0.4375-1.8125-0.4375-1.668 0-2.9766 0.64062-3.9219 1.9219-0.94922 1.2812-1.4219 3.0586-1.4219 5.3281v12.25h-7.9531v-24.906h7.9531v3.6562c1.1953-1.457 2.4688-2.5312 3.8125-3.2188 1.3516-0.6875 2.8477-1.0312 4.4844-1.0312 2.875 0 5.0547 0.88672 6.5469 2.6562 1.4883 1.7617 2.2344 4.3242 2.2344 7.6875z"/>
  </symbol>
  <symbol id="k" overflow="visible">
   <path d="m19.344-27.594c-2.6172 0-4.6406 0.96484-6.0781 2.8906-1.4375 1.9297-2.1562 4.6406-2.1562 8.1406 0 3.4805 0.71875 6.1836 2.1562 8.1094 1.4375 1.9297 3.4609 2.8906 6.0781 2.8906 2.625 0 4.6562-0.96094 6.0938-2.8906 1.4375-1.9258 2.1562-4.6289 2.1562-8.1094 0-3.5-0.71875-6.2109-2.1562-8.1406-1.4375-1.9258-3.4688-2.8906-6.0938-2.8906zm0-6.2031c5.332 0 9.5078 1.5273 12.531 4.5781 3.0312 3.0547 4.5469 7.2734 4.5469 12.656 0 5.3672-1.5156 9.5742-4.5469 12.625-3.0234 3.0547-7.1992 4.5781-12.531 4.5781-5.3242 0-9.5-1.5234-12.531-4.5781-3.0312-3.0508-4.5469-7.2578-4.5469-12.625 0-5.3828 1.5156-9.6016 4.5469-12.656 3.0312-3.0508 7.207-4.5781 12.531-4.5781z"/>
  </symbol>
  <symbol id="j" overflow="visible">
   <path d="m15.672-19.812c-1.7617 0-3.1055 0.63672-4.0312 1.9062-0.92969 1.2734-1.3906 3.1016-1.3906 5.4844 0 2.3867 0.46094 4.2148 1.3906 5.4844 0.92578 1.2617 2.2695 1.8906 4.0312 1.8906 1.7383 0 3.0664-0.62891 3.9844-1.8906 0.91406-1.2695 1.375-3.0977 1.375-5.4844 0-2.3828-0.46094-4.2109-1.375-5.4844-0.91797-1.2695-2.2461-1.9062-3.9844-1.9062zm0-5.6875c4.2812 0 7.625 1.1562 10.031 3.4688 2.4141 2.3125 3.625 5.5156 3.625 9.6094 0 4.0859-1.2109 7.2812-3.625 9.5938-2.4062 2.3125-5.75 3.4688-10.031 3.4688-4.3047 0-7.668-1.1562-10.094-3.4688-2.418-2.3125-3.625-5.5078-3.625-9.5938 0-4.0938 1.207-7.2969 3.625-9.6094 2.4258-2.3125 5.7891-3.4688 10.094-3.4688z"/>
  </symbol>
 </defs>
 <g>
  <path d="m349.95 560c-74.27 0-145.5-29.504-198.02-82.023-52.52-52.52-82.023-123.75-82.023-198.02 0-74.27 29.504-145.5 82.023-198.02 52.516-52.52 123.75-82.023 198.02-82.023 74.273 0 145.5 29.504 198.02 82.023 52.52 52.516 82.023 123.75 82.023 198.02-0.074219 74.25-29.602 145.44-82.102 197.95-52.504 52.5-123.7 82.027-197.95 82.102zm0-528.21c-65.777 0.046875-128.84 26.219-175.33 72.758-46.488 46.535-72.59 109.63-72.562 175.41 0.023437 65.781 26.172 128.86 72.691 175.36 46.523 46.504 109.61 72.629 175.39 72.629 65.777 0 128.86-26.125 175.39-72.629 46.52-46.504 72.668-109.58 72.691-175.36-0.070313-65.805-26.258-128.89-72.805-175.4-46.547-46.512-109.65-72.652-175.46-72.676z"/>
  <path d="m506.96 310.19h-187.24v-201.45h31.965v169.58h155.28z"/>
  <use x="70" y="696.609375" xlink:href="#p"/>
  <use x="103.417969" y="696.609375" xlink:href="#i"/>
  <use x="125.875" y="696.609375" xlink:href="#a"/>
  <use x="156.757812" y="696.609375" xlink:href="#b"/>
  <use x="187.484375" y="696.609375" xlink:href="#h"/>
  <use x="209.253906" y="696.609375" xlink:href="#a"/>
  <use x="240.136719" y="696.609375" xlink:href="#g"/>
  <use x="288.585938" y="696.609375" xlink:href="#f"/>
  <use x="321.179688" y="696.609375" xlink:href="#e"/>
  <use x="366.71875" y="696.609375" xlink:href="#d"/>
  <use x="397.824219" y="696.609375" xlink:href="#o"/>
  <use x="413.429688" y="696.609375" xlink:href="#n"/>
  <use x="429.039063" y="696.609375" xlink:href="#c"/>
  <use x="456.144531" y="696.609375" xlink:href="#a"/>
  <use x="502.878906" y="696.609375" xlink:href="#m"/>
  <use x="538.121094" y="696.609375" xlink:href="#b"/>
  <use x="568.847656" y="696.609375" xlink:href="#l"/>
  <use x="617.121094" y="696.609375" xlink:href="#k"/>
  <use x="655.828125" y="696.609375" xlink:href="#j"/>
  <use x="687.113281" y="696.609375" xlink:href="#c"/>
 </g>
</svg>
