<?xml version="1.0" encoding="UTF-8"?>
<svg width="700pt" height="700pt" version="1.1" viewBox="0 0 200 200" xmlns="http://www.w3.org/2000/svg">
 <path d="m470.52 437.15 95.445 83.527c7.2812 6.3516 18.34 5.6172 24.711-1.6445 6.3516-7.2812 5.6172-18.34-1.6445-24.711l-92.766-81.164c38.867-42.035 62.633-98.246 62.633-159.95 0-130.09-105.61-235.71-235.69-235.71-130.09 0-235.71 105.61-235.71 235.71 0 130.08 105.61 235.69 235.71 235.69 55.719 0 106.94-19.371 147.32-51.746zm-147.32-384.65c110.77 0 200.69 89.934 200.69 200.71 0 110.77-89.914 200.71-200.69 200.71-110.77 0-200.71-89.934-200.71-200.71 0-110.77 89.934-200.71 200.71-200.71z" fill-rule="evenodd"/>
</svg>
