<?xml version="1.0" encoding="UTF-8"?>
<svg width="700pt" height="700pt" version="1.1" viewBox="0 0 700 700" xmlns="http://www.w3.org/2000/svg">
 <path d="m489.96 17.43c-4.6406 0.019531-9.0859 1.8789-12.355 5.1758-3.2695 3.293-5.0938 7.7539-5.0742 12.395v35.035h-35c-4.6406-0.019531-9.1016 1.8047-12.398 5.0742-3.293 3.2695-5.1523 7.7148-5.1719 12.355v4.2031c-1.5781 0.38672-3.2227 0.52734-4.7852 0.95703-6.7109 1.8555-13.32 4.1836-19.652 6.9727-6.332 2.793-12.363 6-18.219 9.6758-5.8555 3.6719-11.504 7.8047-16.781 12.305s-10.234 9.4258-14.832 14.695c-4.6016 5.2695-8.8672 10.84-12.684 16.816-0.31641 0.5-0.57422 1.0352-0.88672 1.5391-2.5938-4.1445-4.7852-8.5938-7.7578-12.406-5.6797-7.2812-12.117-13.918-19.004-19.895-6.8906-5.9727-14.352-11.219-22.219-15.758-7.8672-4.5352-16.055-8.3711-24.676-11.348-8.625-2.9727-17.582-5.082-26.73-6.3555-9.1484-1.2734-18.598-1.7266-28.027-1.1641-9.4336 0.56641-18.848 2.1211-28.301 4.6484-9.4531 2.5312-18.551 6-27 10.223-8.4531 4.2227-16.332 9.1953-23.621 14.867-7.2852 5.6719-13.945 11.949-19.926 18.832-5.9805 6.8828-11.215 14.355-15.758 22.219-4.543 7.8633-8.3711 16.195-11.348 24.812-2.9766 8.6172-5.1836 17.621-6.457 26.762-1.2773 9.1445-1.5938 18.465-1.0273 27.891 0.56641 9.4297 2.1133 18.859 4.6484 28.305v0.10156c5.4336 19.66 12.34 38.141 20.406 55.301 8.0664 17.164 17.336 33.102 27.379 47.922 10.039 14.82 20.805 28.539 32.16 41.219 11.355 12.684 23.25 24.227 35.273 35 12.027 10.777 24.23 20.73 36.301 29.84 12.07 9.1094 24.012 17.375 35.512 25.055 11.5 7.6797 22.516 14.727 32.812 21.191s19.871 12.422 28.301 17.84c5.75 3.6797 13.117 3.6797 18.867 0 8.4297-5.418 18.004-11.375 28.301-17.84s21.418-13.512 32.914-21.191c11.5-7.6797 23.34-15.945 35.41-25.055 12.07-9.1094 24.273-19.062 36.301-29.84 12.023-10.773 23.918-22.316 35.273-35 11.355-12.68 22.258-26.398 32.301-41.219 10.039-14.82 19.172-30.758 27.238-47.922 8.0664-17.16 14.973-35.641 20.406-55.301 0.042969-0.042969 0.09375-0.058593 0.13672-0.10156 1.2852-4.7891 2.3398-9.5547 3.1094-14.359 0.77344-4.7969 1.2656-9.5391 1.5391-14.32 0.27344-4.7773 0.20703-9.6328 0-14.355-0.20703-4.7188-0.62891-9.3164-1.2969-13.945-0.67188-4.6289-1.5859-9.3359-2.7031-13.84-1.1172-4.5078-2.4531-8.8047-3.9961-13.16-0.86719-2.4453-1.9336-4.8242-2.9062-7.2461h28.473c4.6641 0.019532 9.1445-1.8281 12.441-5.125 3.3008-3.3008 5.1445-7.7773 5.125-12.445v-70c-0.015625-4.6406-1.8789-9.0859-5.1719-12.355-3.2969-3.2695-7.7539-5.0938-12.395-5.0742h-34.863v-35.035c0.015626-4.6641-1.8281-9.1445-5.125-12.445-3.3008-3.2969-7.7812-5.1406-12.445-5.125zm17.57 35.004h35.035v35.031c-0.019531 4.6406 1.8047 9.1016 5.0742 12.398 3.2695 3.293 7.7148 5.1523 12.355 5.1719h35v35h-35c-4.6172 0.015625-9.043 1.8594-12.309 5.125s-5.1055 7.6875-5.1211 12.305v35h-35.035v-35c-0.019531-4.6406-1.8789-9.0859-5.1719-12.355-3.2969-3.2695-7.7539-5.0938-12.398-5.0742h-35v-35h35c4.668 0.019532 9.1445-1.8281 12.445-5.125 3.2969-3.3008 5.1445-7.7773 5.125-12.445zm-291.07 70.168c3.4844 0.12891 6.9141 0.41016 10.355 0.89063 6.8867 0.95703 13.664 2.543 20.168 4.7852 6.5039 2.2422 12.785 5.2188 18.73 8.6445 5.9414 3.4297 11.586 7.3906 16.781 11.895 5.1953 4.5078 9.9453 9.4961 14.219 14.973 4.2695 5.4766 8.0664 11.352 11.246 17.707 3.1758 6.3516 5.6992 13.141 7.6211 20.301 4.5859 17.383 29.25 17.383 33.836 0 1.4609-5.4492 3.3711-10.668 5.5742-15.652 2.1992-4.9883 4.75-9.6914 7.6211-14.188 2.8672-4.4922 5.9688-8.7148 9.4336-12.68 3.4609-3.9648 7.2305-7.7148 11.211-11.109 3.9805-3.3945 8.2578-6.3828 12.68-9.1602 4.4219-2.7734 9.0273-5.2734 13.809-7.3828 3.3164-1.4609 6.7773-2.5586 10.219-3.6914v29.531c-0.019532 4.668 1.8281 9.1445 5.125 12.445 3.3008 3.2969 7.7773 5.1445 12.445 5.125h35v35.031c0.015625 4.6211 1.8594 9.043 5.125 12.309s7.6875 5.1094 12.305 5.125h70c0.03125 2.6562 0.050781 5.3203-0.10156 7.9961-0.20703 3.5938-0.58203 7.25-1.1602 10.871-0.57812 3.5781-1.3672 7.1094-2.3242 10.699-4.8984 17.715-11.105 34.203-18.355 49.629-7.25 15.426-15.457 29.863-24.543 43.27-9.082 13.406-19.062 25.848-29.461 37.461-10.402 11.617-21.223 22.383-32.402 32.402-11.184 10.02-22.703 19.316-34.113 27.926-11.406 8.6094-22.766 16.496-33.836 23.891-11.074 7.3945-21.875 14.285-32.062 20.68-6.8203 4.2812-12.875 8.0703-19.105 11.996-6.2305-3.9258-12.285-7.7148-19.105-11.996-10.188-6.3945-20.988-13.285-32.062-20.68-11.07-7.3945-22.43-15.281-33.836-23.891-11.41-8.6094-22.793-17.906-33.977-27.926-11.18-10.02-22.137-20.785-32.539-32.402-10.398-11.613-20.242-24.055-29.324-37.461-9.0859-13.406-17.43-27.844-24.68-43.27-7.2305-15.391-13.465-31.824-18.352-49.492v-0.13672c-1.9023-7.1172-3.0664-14.246-3.4883-21.297-0.42578-7.0898-0.070313-14.074 0.89062-20.949 0.95703-6.875 2.5391-13.637 4.7852-20.133 2.2422-6.4961 5.1133-12.691 8.543-18.629 3.4297-5.9336 7.4883-11.59 11.996-16.781 4.5117-5.1914 9.5234-9.9492 15.008-14.219 5.4805-4.2695 11.445-8.0352 17.805-11.211 6.3633-3.1758 13.133-5.7031 20.305-7.6211 7.168-1.9219 14.328-3.0625 21.43-3.4883 3.5508-0.21094 7.0781-0.26172 10.562-0.13672z" fill-rule="evenodd"/>
</svg>
